<svg width="248" height="155" viewBox="0 0 248 155" fill="none" xmlns="http://www.w3.org/2000/svg">
<path d="M73.7437 1.86283C69.8307 1.89317 66.5455 5.22977 66.5758 9.14271C66.6062 13.0556 69.9428 16.3409 73.8557 16.3106C77.7686 16.2802 81.0539 12.9436 81.0236 9.03068C80.9932 5.11774 77.6566 1.83248 73.7437 1.86283Z" fill="url(#paint0_linear_80_58)"/>
<path d="M40.3345 2.12186C36.4216 2.1522 33.1363 5.4888 33.1666 9.40174C33.197 13.3147 36.5336 16.5999 40.4465 16.5696C44.3595 16.5393 47.6447 13.2026 47.6144 9.28971C47.584 5.37677 44.5484 2.08918 40.3345 2.12186Z" fill="url(#paint1_linear_80_58)"/>
<path d="M7.22316 2.37906C3.31023 2.4094 0.02497 5.74601 0.0553121 9.65895C0.0856542 13.5719 3.42226 16.8571 7.3352 16.8268C11.2481 16.7965 14.5334 13.4599 14.503 9.54691C14.4727 5.63397 11.1361 2.34872 7.22316 2.37906Z" fill="url(#paint2_linear_80_58)"/>
<path d="M74.0112 36.4773C70.0983 36.5077 66.8131 39.8443 66.8434 43.7572C66.8737 47.6701 70.2103 50.9554 74.1233 50.9251C78.0362 50.8947 81.3215 47.5581 81.2911 43.6452C81.2608 39.7322 77.9242 36.447 74.0112 36.4773Z" fill="url(#paint3_linear_80_58)"/>
<path d="M40.6021 36.7364C36.6891 36.7667 33.4039 40.1033 33.4342 44.0162C33.4646 47.9292 36.8012 51.2144 40.7141 51.1841C44.627 51.1538 47.9123 47.8172 47.882 43.9042C47.8516 39.9913 44.816 36.7037 40.6021 36.7364Z" fill="url(#paint4_linear_80_58)"/>
<path d="M7.49269 36.9936C3.57976 37.0239 0.294501 40.3605 0.324843 44.2734C0.355185 48.1864 3.69179 51.4716 7.60473 51.4413C11.5177 51.411 14.8029 48.0744 14.7726 44.1614C14.7422 40.2485 11.4056 36.9632 7.49269 36.9936Z" fill="url(#paint5_linear_80_58)"/>
<path d="M74.2779 70.791C70.3649 70.8214 67.0797 74.158 67.11 78.0709C67.1403 81.9839 70.4769 85.2691 74.3899 85.2388C78.3028 85.2084 81.5881 81.8718 81.5577 77.9589C81.5274 74.046 78.1908 70.7607 74.2779 70.791Z" fill="url(#paint6_linear_80_58)"/>
<path d="M40.8687 71.05C36.9557 71.0803 33.6705 74.4169 33.7008 78.3298C33.7312 82.2428 37.0678 85.528 40.9807 85.4977C44.8936 85.4674 48.1789 82.1307 48.1486 78.2178C48.1182 74.3049 45.0826 71.0173 40.8687 71.05Z" fill="url(#paint7_linear_80_58)"/>
<path d="M7.75832 71.3063C3.84538 71.3366 0.560126 74.6733 0.590468 78.5862C0.62081 82.4991 3.95741 85.7844 7.87035 85.754C11.7833 85.7237 15.0685 82.3871 15.0382 78.4742C15.0079 74.5612 11.6713 71.276 7.75832 71.3063Z" fill="url(#paint8_linear_80_58)"/>
<path d="M74.5464 105.404C70.6335 105.434 67.3482 108.771 67.3786 112.683C67.4089 116.596 70.7455 119.882 74.6584 119.851C78.5714 119.821 81.8566 116.484 81.8263 112.571C81.7959 108.659 78.4593 105.373 74.5464 105.404Z" fill="url(#paint9_linear_80_58)"/>
<path d="M41.1372 105.663C37.2243 105.694 33.939 109.03 33.9694 112.943C33.9997 116.856 37.3363 120.142 41.2493 120.111C45.1622 120.081 48.4475 116.744 48.4171 112.831C48.3868 108.918 45.3512 105.631 41.1372 105.663Z" fill="url(#paint10_linear_80_58)"/>
<path d="M8.02687 105.92C4.11394 105.95 0.828681 109.287 0.859023 113.2C0.889365 117.113 4.22597 120.398 8.13891 120.368C12.0518 120.337 15.3371 117.001 15.3068 113.088C15.2764 109.175 11.9398 105.889 8.02687 105.92Z" fill="url(#paint11_linear_80_58)"/>
<path d="M74.812 139.717C70.8991 139.748 67.6138 143.084 67.6442 146.997C67.6745 150.91 71.0111 154.195 74.9241 154.165C78.837 154.135 82.1223 150.798 82.0919 146.885C82.0616 142.972 78.725 139.687 74.812 139.717Z" fill="url(#paint12_linear_80_58)"/>
<path d="M41.4029 139.976C37.4899 140.007 34.2047 143.343 34.235 147.256C34.2653 151.169 37.6019 154.454 41.5149 154.424C45.4278 154.394 48.7131 151.057 48.6827 147.144C48.6524 143.231 45.6168 139.944 41.4029 139.976Z" fill="url(#paint13_linear_80_58)"/>
<path d="M8.2925 140.234C4.37956 140.264 1.09431 143.6 1.12465 147.513C1.15499 151.426 4.49159 154.712 8.40453 154.681C12.3175 154.651 15.6027 151.314 15.5724 147.401C15.542 143.488 12.2054 140.203 8.2925 140.234Z" fill="url(#paint14_linear_80_58)"/>
<path d="M240.196 0.571567C236.283 0.601909 232.998 3.93851 233.028 7.85145C233.058 11.7644 236.395 15.0496 240.308 15.0193C244.221 14.989 247.506 11.6524 247.476 7.73942C247.445 3.82648 244.109 0.541224 240.196 0.571567Z" fill="url(#paint15_linear_80_58)"/>
<path d="M214.063 7.9993C214.032 4.00966 210.772 0.800517 206.783 0.831454C202.793 0.86239 199.584 4.1217 199.615 8.11134C199.646 12.101 202.905 15.3101 206.895 15.2792C210.885 15.2483 214.094 11.9889 214.063 7.9993Z" fill="url(#paint16_linear_80_58)"/>
<path d="M180.653 8.25736C180.623 4.26772 177.363 1.05857 173.374 1.08951C169.384 1.12045 166.175 4.37975 166.206 8.36939C166.237 12.359 169.496 15.5682 173.486 15.5372C177.475 15.5063 180.684 12.247 180.653 8.25736Z" fill="url(#paint17_linear_80_58)"/>
<path d="M140.264 1.34671C136.351 1.37706 133.066 4.71366 133.096 8.6266C133.127 12.5395 136.463 15.8248 140.376 15.7944C144.289 15.7641 147.574 12.4275 147.544 8.51456C147.514 4.60163 144.177 1.31637 140.264 1.34671Z" fill="url(#paint18_linear_80_58)"/>
<path d="M114.131 8.7736C114.1 4.78396 110.841 1.57481 106.851 1.60575C102.861 1.63668 99.6523 4.89599 99.6832 8.88563C99.7142 12.8753 102.973 16.0844 106.963 16.0535C110.953 16.0225 114.162 12.7632 114.131 8.7736Z" fill="url(#paint19_linear_80_58)"/>
<path d="M240.464 35.1859C236.551 35.2163 233.266 38.5529 233.297 42.4658C233.327 46.3788 236.663 49.664 240.576 49.6337C244.489 49.6033 247.775 46.2667 247.744 42.3538C247.714 38.4409 244.377 35.1556 240.464 35.1859Z" fill="url(#paint20_linear_80_58)"/>
<path d="M214.33 42.6138C214.299 38.6242 211.04 35.415 207.05 35.446C203.061 35.4769 199.852 38.7362 199.882 42.7258C199.913 46.7155 203.173 49.9246 207.162 49.8937C211.152 49.8628 214.361 46.6034 214.33 42.6138Z" fill="url(#paint21_linear_80_58)"/>
<path d="M180.922 42.8727C180.891 38.8831 177.632 35.6739 173.642 35.7049C169.652 35.7358 166.443 38.9951 166.474 42.9848C166.505 46.9744 169.764 50.1835 173.754 50.1526C177.744 50.1217 180.953 46.8624 180.922 42.8727Z" fill="url(#paint22_linear_80_58)"/>
<path d="M140.534 35.9621C136.621 35.9924 133.336 39.329 133.366 43.242C133.396 47.1549 136.733 50.4401 140.646 50.4098C144.559 50.3795 147.844 47.0429 147.814 43.1299C147.783 39.217 144.447 35.9317 140.534 35.9621Z" fill="url(#paint23_linear_80_58)"/>
<path d="M114.4 43.388C114.369 39.3983 111.109 36.1892 107.12 36.2201C103.13 36.2511 99.9209 39.5104 99.9518 43.5C99.9827 47.4897 103.242 50.6988 107.232 50.6679C111.221 50.6369 114.43 47.3776 114.4 43.388Z" fill="url(#paint24_linear_80_58)"/>
<path d="M240.73 69.4997C236.817 69.53 233.532 72.8666 233.562 76.7796C233.592 80.6925 236.929 83.9777 240.842 83.9474C244.755 83.9171 248.04 80.5805 248.01 76.6675C247.98 72.7546 244.643 69.4693 240.73 69.4997Z" fill="url(#paint25_linear_80_58)"/>
<path d="M207.318 69.7587C203.405 69.789 200.12 73.1256 200.15 77.0386C200.18 80.9515 203.517 84.2368 207.43 84.2064C211.343 84.1761 214.628 80.8395 214.598 76.9266C214.568 73.0136 211.231 69.7284 207.318 69.7587Z" fill="url(#paint26_linear_80_58)"/>
<path d="M173.908 70.0186C169.995 70.0489 166.71 73.3855 166.74 77.2985C166.77 81.2114 170.107 84.4967 174.02 84.4663C177.933 84.436 181.218 81.0994 181.188 77.1864C181.458 73.2712 178.122 69.9859 173.908 70.0186Z" fill="url(#paint27_linear_80_58)"/>
<path d="M140.798 70.2748C136.885 70.3052 133.6 73.6418 133.631 77.5547C133.661 81.4676 136.997 84.7529 140.91 84.7225C144.823 84.6922 148.109 81.3556 148.078 77.4427C148.048 73.5297 144.711 70.2445 140.798 70.2748Z" fill="url(#paint28_linear_80_58)"/>
<path d="M107.385 70.5347C103.472 70.565 100.187 73.9016 100.217 77.8146C100.248 81.7275 103.584 85.0128 107.497 84.9824C111.41 84.9521 114.695 81.6155 114.665 77.7026C114.936 73.7873 111.599 70.502 107.385 70.5347Z" fill="url(#paint29_linear_80_58)"/>
<path d="M240.998 104.113C237.085 104.144 233.799 107.48 233.83 111.393C233.86 115.306 237.197 118.591 241.11 118.561C245.023 118.531 248.308 115.194 248.278 111.281C248.247 107.368 244.911 104.083 240.998 104.113Z" fill="url(#paint30_linear_80_58)"/>
<path d="M207.586 104.372C203.673 104.403 200.387 107.739 200.418 111.652C200.448 115.565 203.785 118.85 207.698 118.82C211.611 118.79 214.896 115.453 214.865 111.54C214.835 107.627 211.498 104.342 207.586 104.372Z" fill="url(#paint31_linear_80_58)"/>
<path d="M174.177 104.631C170.264 104.661 166.979 107.998 167.009 111.911C167.04 115.824 170.376 119.109 174.289 119.079C178.202 119.049 181.487 115.712 181.457 111.799C181.728 107.884 178.391 104.598 174.177 104.631Z" fill="url(#paint32_linear_80_58)"/>
<path d="M141.067 104.887C137.154 104.918 133.869 108.254 133.899 112.167C133.929 116.08 137.266 119.366 141.179 119.335C145.092 119.305 148.377 115.968 148.347 112.055C148.316 108.142 144.98 104.857 141.067 104.887Z" fill="url(#paint33_linear_80_58)"/>
<path d="M107.654 105.147C103.741 105.178 100.456 108.514 100.486 112.427C100.516 116.34 103.853 119.625 107.766 119.595C111.679 119.565 114.964 116.228 114.934 112.315C115.204 108.4 111.868 105.115 107.654 105.147Z" fill="url(#paint34_linear_80_58)"/>
<path d="M241.265 138.427C237.352 138.457 234.067 141.794 234.097 145.707C234.128 149.62 237.464 152.905 241.377 152.875C245.29 152.844 248.575 149.508 248.545 145.595C248.515 141.682 245.178 138.397 241.265 138.427Z" fill="url(#paint35_linear_80_58)"/>
<path d="M207.851 138.686C203.938 138.716 200.653 142.053 200.683 145.966C200.714 149.879 204.05 153.164 207.963 153.134C211.876 153.103 215.161 149.767 215.131 145.854C215.101 141.941 211.764 138.655 207.851 138.686Z" fill="url(#paint36_linear_80_58)"/>
<path d="M174.443 138.945C170.53 138.975 167.245 142.312 167.275 146.225C167.305 150.138 170.642 153.423 174.555 153.393C178.468 153.362 181.753 150.026 181.723 146.113C181.692 142.2 178.657 138.912 174.443 138.945Z" fill="url(#paint37_linear_80_58)"/>
<path d="M141.333 139.201C137.42 139.231 134.134 142.568 134.165 146.481C134.195 150.394 137.532 153.679 141.445 153.649C145.358 153.618 148.643 150.282 148.612 146.369C148.582 142.456 145.245 139.171 141.333 139.201Z" fill="url(#paint38_linear_80_58)"/>
<path d="M107.92 139.46C104.007 139.49 100.722 142.827 100.753 146.74C100.783 150.653 104.12 153.938 108.032 153.908C111.945 153.878 115.231 150.541 115.2 146.628C115.17 142.715 112.134 139.427 107.92 139.46Z" fill="url(#paint39_linear_80_58)"/>
<defs>
<linearGradient id="paint0_linear_80_58" x1="79.1294" y1="16.2697" x2="78.0966" y2="1.81948" gradientUnits="userSpaceOnUse">
<stop stop-color="#129106"/>
<stop offset="1" stop-color="#5EBF4E"/>
</linearGradient>
<linearGradient id="paint1_linear_80_58" x1="45.7202" y1="16.5287" x2="44.6874" y2="2.07852" gradientUnits="userSpaceOnUse">
<stop stop-color="#129106"/>
<stop offset="1" stop-color="#5EBF4E"/>
</linearGradient>
<linearGradient id="paint2_linear_80_58" x1="12.6089" y1="16.7859" x2="11.5761" y2="2.33572" gradientUnits="userSpaceOnUse">
<stop stop-color="#129106"/>
<stop offset="1" stop-color="#5EBF4E"/>
</linearGradient>
<linearGradient id="paint3_linear_80_58" x1="79.397" y1="50.8842" x2="78.3642" y2="36.434" gradientUnits="userSpaceOnUse">
<stop stop-color="#129106"/>
<stop offset="1" stop-color="#5EBF4E"/>
</linearGradient>
<linearGradient id="paint4_linear_80_58" x1="45.9878" y1="51.1432" x2="44.955" y2="36.693" gradientUnits="userSpaceOnUse">
<stop stop-color="#129106"/>
<stop offset="1" stop-color="#5EBF4E"/>
</linearGradient>
<linearGradient id="paint5_linear_80_58" x1="12.8784" y1="51.4004" x2="11.8456" y2="36.9502" gradientUnits="userSpaceOnUse">
<stop stop-color="#129106"/>
<stop offset="1" stop-color="#5EBF4E"/>
</linearGradient>
<linearGradient id="paint6_linear_80_58" x1="79.6636" y1="85.1979" x2="78.6308" y2="70.7477" gradientUnits="userSpaceOnUse">
<stop stop-color="#129106"/>
<stop offset="1" stop-color="#5EBF4E"/>
</linearGradient>
<linearGradient id="paint7_linear_80_58" x1="46.2544" y1="85.4568" x2="45.2216" y2="71.0066" gradientUnits="userSpaceOnUse">
<stop stop-color="#129106"/>
<stop offset="1" stop-color="#5EBF4E"/>
</linearGradient>
<linearGradient id="paint8_linear_80_58" x1="13.144" y1="85.7131" x2="12.1113" y2="71.263" gradientUnits="userSpaceOnUse">
<stop stop-color="#129106"/>
<stop offset="1" stop-color="#5EBF4E"/>
</linearGradient>
<linearGradient id="paint9_linear_80_58" x1="79.9321" y1="119.81" x2="78.8993" y2="105.36" gradientUnits="userSpaceOnUse">
<stop stop-color="#129106"/>
<stop offset="1" stop-color="#5EBF4E"/>
</linearGradient>
<linearGradient id="paint10_linear_80_58" x1="46.523" y1="120.07" x2="45.4902" y2="105.62" gradientUnits="userSpaceOnUse">
<stop stop-color="#129106"/>
<stop offset="1" stop-color="#5EBF4E"/>
</linearGradient>
<linearGradient id="paint11_linear_80_58" x1="13.4126" y1="120.327" x2="12.3798" y2="105.876" gradientUnits="userSpaceOnUse">
<stop stop-color="#129106"/>
<stop offset="1" stop-color="#5EBF4E"/>
</linearGradient>
<linearGradient id="paint12_linear_80_58" x1="80.1978" y1="154.124" x2="79.165" y2="139.674" gradientUnits="userSpaceOnUse">
<stop stop-color="#129106"/>
<stop offset="1" stop-color="#5EBF4E"/>
</linearGradient>
<linearGradient id="paint13_linear_80_58" x1="46.7886" y1="154.383" x2="45.7558" y2="139.933" gradientUnits="userSpaceOnUse">
<stop stop-color="#129106"/>
<stop offset="1" stop-color="#5EBF4E"/>
</linearGradient>
<linearGradient id="paint14_linear_80_58" x1="13.6782" y1="154.64" x2="12.6454" y2="140.19" gradientUnits="userSpaceOnUse">
<stop stop-color="#129106"/>
<stop offset="1" stop-color="#5EBF4E"/>
</linearGradient>
<linearGradient id="paint15_linear_80_58" x1="245.582" y1="14.9784" x2="244.549" y2="0.528222" gradientUnits="userSpaceOnUse">
<stop stop-color="#129106"/>
<stop offset="1" stop-color="#5EBF4E"/>
</linearGradient>
<linearGradient id="paint16_linear_80_58" x1="212.169" y1="15.2383" x2="211.136" y2="0.78811" gradientUnits="userSpaceOnUse">
<stop stop-color="#129106"/>
<stop offset="1" stop-color="#5EBF4E"/>
</linearGradient>
<linearGradient id="paint17_linear_80_58" x1="178.759" y1="15.4964" x2="177.726" y2="1.04617" gradientUnits="userSpaceOnUse">
<stop stop-color="#129106"/>
<stop offset="1" stop-color="#5EBF4E"/>
</linearGradient>
<linearGradient id="paint18_linear_80_58" x1="145.65" y1="15.7536" x2="144.617" y2="1.30337" gradientUnits="userSpaceOnUse">
<stop stop-color="#129106"/>
<stop offset="1" stop-color="#5EBF4E"/>
</linearGradient>
<linearGradient id="paint19_linear_80_58" x1="112.237" y1="16.0126" x2="111.204" y2="1.5624" gradientUnits="userSpaceOnUse">
<stop stop-color="#129106"/>
<stop offset="1" stop-color="#5EBF4E"/>
</linearGradient>
<linearGradient id="paint20_linear_80_58" x1="245.85" y1="49.5928" x2="244.817" y2="35.1426" gradientUnits="userSpaceOnUse">
<stop stop-color="#129106"/>
<stop offset="1" stop-color="#5EBF4E"/>
</linearGradient>
<linearGradient id="paint21_linear_80_58" x1="212.436" y1="49.8528" x2="211.403" y2="35.4026" gradientUnits="userSpaceOnUse">
<stop stop-color="#129106"/>
<stop offset="1" stop-color="#5EBF4E"/>
</linearGradient>
<linearGradient id="paint22_linear_80_58" x1="179.028" y1="50.1117" x2="177.995" y2="35.6615" gradientUnits="userSpaceOnUse">
<stop stop-color="#129106"/>
<stop offset="1" stop-color="#5EBF4E"/>
</linearGradient>
<linearGradient id="paint23_linear_80_58" x1="145.919" y1="50.3689" x2="144.887" y2="35.9187" gradientUnits="userSpaceOnUse">
<stop stop-color="#129106"/>
<stop offset="1" stop-color="#5EBF4E"/>
</linearGradient>
<linearGradient id="paint24_linear_80_58" x1="112.505" y1="50.627" x2="111.473" y2="36.1768" gradientUnits="userSpaceOnUse">
<stop stop-color="#129106"/>
<stop offset="1" stop-color="#5EBF4E"/>
</linearGradient>
<linearGradient id="paint25_linear_80_58" x1="246.116" y1="83.9065" x2="245.083" y2="69.4563" gradientUnits="userSpaceOnUse">
<stop stop-color="#129106"/>
<stop offset="1" stop-color="#5EBF4E"/>
</linearGradient>
<linearGradient id="paint26_linear_80_58" x1="212.704" y1="84.1655" x2="211.671" y2="69.7154" gradientUnits="userSpaceOnUse">
<stop stop-color="#129106"/>
<stop offset="1" stop-color="#5EBF4E"/>
</linearGradient>
<linearGradient id="paint27_linear_80_58" x1="179.31" y1="84.4253" x2="178.278" y2="69.975" gradientUnits="userSpaceOnUse">
<stop stop-color="#129106"/>
<stop offset="1" stop-color="#5EBF4E"/>
</linearGradient>
<linearGradient id="paint28_linear_80_58" x1="146.184" y1="84.6817" x2="145.151" y2="70.2315" gradientUnits="userSpaceOnUse">
<stop stop-color="#129106"/>
<stop offset="1" stop-color="#5EBF4E"/>
</linearGradient>
<linearGradient id="paint29_linear_80_58" x1="112.787" y1="84.9414" x2="111.756" y2="70.4911" gradientUnits="userSpaceOnUse">
<stop stop-color="#129106"/>
<stop offset="1" stop-color="#5EBF4E"/>
</linearGradient>
<linearGradient id="paint30_linear_80_58" x1="246.383" y1="118.52" x2="245.351" y2="104.07" gradientUnits="userSpaceOnUse">
<stop stop-color="#129106"/>
<stop offset="1" stop-color="#5EBF4E"/>
</linearGradient>
<linearGradient id="paint31_linear_80_58" x1="212.971" y1="118.779" x2="211.938" y2="104.329" gradientUnits="userSpaceOnUse">
<stop stop-color="#129106"/>
<stop offset="1" stop-color="#5EBF4E"/>
</linearGradient>
<linearGradient id="paint32_linear_80_58" x1="179.579" y1="119.038" x2="178.548" y2="104.588" gradientUnits="userSpaceOnUse">
<stop stop-color="#129106"/>
<stop offset="1" stop-color="#5EBF4E"/>
</linearGradient>
<linearGradient id="paint33_linear_80_58" x1="146.453" y1="119.294" x2="145.42" y2="104.844" gradientUnits="userSpaceOnUse">
<stop stop-color="#129106"/>
<stop offset="1" stop-color="#5EBF4E"/>
</linearGradient>
<linearGradient id="paint34_linear_80_58" x1="113.056" y1="119.554" x2="112.024" y2="105.104" gradientUnits="userSpaceOnUse">
<stop stop-color="#129106"/>
<stop offset="1" stop-color="#5EBF4E"/>
</linearGradient>
<linearGradient id="paint35_linear_80_58" x1="246.651" y1="152.834" x2="245.618" y2="138.384" gradientUnits="userSpaceOnUse">
<stop stop-color="#129106"/>
<stop offset="1" stop-color="#5EBF4E"/>
</linearGradient>
<linearGradient id="paint36_linear_80_58" x1="213.237" y1="153.093" x2="212.204" y2="138.642" gradientUnits="userSpaceOnUse">
<stop stop-color="#129106"/>
<stop offset="1" stop-color="#5EBF4E"/>
</linearGradient>
<linearGradient id="paint37_linear_80_58" x1="179.829" y1="153.352" x2="178.796" y2="138.902" gradientUnits="userSpaceOnUse">
<stop stop-color="#129106"/>
<stop offset="1" stop-color="#5EBF4E"/>
</linearGradient>
<linearGradient id="paint38_linear_80_58" x1="146.718" y1="153.608" x2="145.685" y2="139.158" gradientUnits="userSpaceOnUse">
<stop stop-color="#129106"/>
<stop offset="1" stop-color="#5EBF4E"/>
</linearGradient>
<linearGradient id="paint39_linear_80_58" x1="113.306" y1="153.867" x2="112.273" y2="139.417" gradientUnits="userSpaceOnUse">
<stop stop-color="#129106"/>
<stop offset="1" stop-color="#5EBF4E"/>
</linearGradient>
</defs>
</svg>
