<svg width="297" height="154" viewBox="0 0 297 154" fill="none" xmlns="http://www.w3.org/2000/svg">
<path d="M222.932 152.66C226.845 152.641 230.14 149.314 230.122 145.401C230.103 141.488 226.776 138.193 222.863 138.212C218.95 138.231 215.655 141.558 215.674 145.471C215.692 149.384 219.019 152.679 222.932 152.66Z" fill="url(#paint0_linear_80_109)"/>
<path d="M256.343 152.499C260.256 152.481 263.551 149.154 263.532 145.241C263.513 141.328 260.186 138.033 256.273 138.051C252.36 138.07 249.065 141.397 249.084 145.31C249.103 149.223 252.129 152.52 256.343 152.499Z" fill="url(#paint1_linear_80_109)"/>
<path d="M289.454 152.34C293.367 152.321 296.662 148.994 296.643 145.081C296.624 141.168 293.297 137.873 289.384 137.892C285.471 137.911 282.176 141.238 282.195 145.151C282.214 149.064 285.541 152.359 289.454 152.34Z" fill="url(#paint2_linear_80_109)"/>
<path d="M222.766 118.045C226.679 118.026 229.974 114.699 229.956 110.786C229.937 106.873 226.61 103.578 222.697 103.597C218.784 103.616 215.489 106.943 215.508 110.856C215.526 114.769 218.853 118.064 222.766 118.045Z" fill="url(#paint3_linear_80_109)"/>
<path d="M256.177 117.884C260.09 117.866 263.385 114.539 263.366 110.626C263.347 106.713 260.02 103.418 256.107 103.436C252.194 103.455 248.899 106.782 248.918 110.695C248.937 114.608 251.963 117.905 256.177 117.884Z" fill="url(#paint4_linear_80_109)"/>
<path d="M289.287 117.725C293.2 117.706 296.495 114.379 296.476 110.466C296.457 106.553 293.13 103.258 289.217 103.277C285.304 103.296 282.009 106.622 282.028 110.535C282.047 114.448 285.374 117.744 289.287 117.725Z" fill="url(#paint5_linear_80_109)"/>
<path d="M222.601 83.7307C226.514 83.7119 229.809 80.385 229.791 76.472C229.772 72.559 226.445 69.2639 222.532 69.2827C218.619 69.3016 215.324 72.6285 215.343 76.5415C215.361 80.4545 218.688 83.7496 222.601 83.7307Z" fill="url(#paint6_linear_80_109)"/>
<path d="M256.012 83.5701C259.925 83.5513 263.22 80.2244 263.201 76.3113C263.182 72.3983 259.855 69.1033 255.942 69.1221C252.029 69.1409 248.734 72.4678 248.753 76.3808C248.772 80.2938 251.797 83.5904 256.012 83.5701Z" fill="url(#paint7_linear_80_109)"/>
<path d="M289.123 83.4113C293.036 83.3925 296.331 80.0656 296.312 76.1526C296.293 72.2396 292.966 68.9445 289.053 68.9633C285.14 68.9822 281.845 72.3091 281.864 76.2221C281.883 80.1351 285.21 83.4302 289.123 83.4113Z" fill="url(#paint8_linear_80_109)"/>
<path d="M222.434 49.1175C226.347 49.0986 229.642 45.7717 229.624 41.8587C229.605 37.9457 226.278 34.6506 222.365 34.6695C218.452 34.6883 215.157 38.0152 215.176 41.9282C215.194 45.8412 218.521 49.1363 222.434 49.1175Z" fill="url(#paint9_linear_80_109)"/>
<path d="M255.845 48.9559C259.758 48.9371 263.053 45.6102 263.034 41.6971C263.015 37.7841 259.688 34.4891 255.775 34.5079C251.862 34.5267 248.567 37.8536 248.586 41.7666C248.605 45.6796 251.631 48.9762 255.845 48.9559Z" fill="url(#paint10_linear_80_109)"/>
<path d="M288.956 48.7971C292.869 48.7783 296.164 45.4514 296.145 41.5384C296.126 37.6254 292.799 34.3303 288.886 34.3491C284.973 34.368 281.678 37.6949 281.697 41.6079C281.716 45.5209 285.043 48.816 288.956 48.7971Z" fill="url(#paint11_linear_80_109)"/>
<path d="M222.27 14.8031C226.183 14.7843 229.478 11.4574 229.46 7.54437C229.441 3.63136 226.114 0.336299 222.201 0.355119C218.288 0.37394 214.993 3.70086 215.012 7.61387C215.03 11.5269 218.357 14.8219 222.27 14.8031Z" fill="url(#paint12_linear_80_109)"/>
<path d="M255.679 14.6425C259.592 14.6237 262.888 11.2968 262.869 7.38379C262.85 3.47078 259.523 0.175715 255.61 0.194536C251.697 0.213357 248.402 3.54027 248.421 7.45328C248.44 11.3663 251.465 14.6628 255.679 14.6425Z" fill="url(#paint13_linear_80_109)"/>
<path d="M288.791 14.4827C292.704 14.4639 295.999 11.137 295.98 7.224C295.961 3.31099 292.634 0.0159251 288.721 0.0347458C284.808 0.0535665 281.513 3.38048 281.532 7.29349C281.551 11.2065 284.878 14.5016 288.791 14.4827Z" fill="url(#paint14_linear_80_109)"/>
<path d="M16.1091 146.431C16.1283 150.421 19.3782 153.639 23.368 153.62C27.3577 153.601 30.5764 150.351 30.5572 146.361C30.538 142.372 27.2882 139.153 23.2985 139.172C19.3087 139.191 16.0899 142.441 16.1091 146.431Z" fill="url(#paint15_linear_80_109)"/>
<path d="M56.4773 153.461C60.3903 153.443 63.6854 150.116 63.6666 146.203C63.6478 142.29 60.3208 138.995 56.4078 139.013C52.4948 139.032 49.1997 142.359 49.2185 146.272C49.2373 150.185 52.5643 153.48 56.4773 153.461Z" fill="url(#paint16_linear_80_109)"/>
<path d="M82.6325 146.111C82.6517 150.1 85.9016 153.319 89.8913 153.3C93.881 153.281 97.0998 150.031 97.0806 146.041C97.0615 142.051 93.8115 138.833 89.8218 138.852C85.8321 138.871 82.6134 142.121 82.6325 146.111Z" fill="url(#paint17_linear_80_109)"/>
<path d="M116.042 145.951C116.061 149.941 119.311 153.159 123.301 153.14C127.29 153.121 130.509 149.871 130.49 145.881C130.471 141.892 127.221 138.673 123.231 138.692C119.241 138.711 116.023 141.961 116.042 145.951Z" fill="url(#paint18_linear_80_109)"/>
<path d="M156.411 152.98C160.324 152.962 163.619 149.635 163.6 145.722C163.581 141.809 160.254 138.514 156.341 138.532C152.428 138.551 149.133 141.878 149.152 145.791C149.171 149.704 152.498 152.999 156.411 152.98Z" fill="url(#paint19_linear_80_109)"/>
<path d="M182.565 145.631C182.584 149.62 185.834 152.839 189.824 152.82C193.814 152.801 197.032 149.551 197.013 145.561C196.994 141.571 193.744 138.353 189.755 138.372C185.765 138.391 182.546 141.641 182.565 145.631Z" fill="url(#paint20_linear_80_109)"/>
<path d="M15.9421 111.816C15.9613 115.805 19.2112 119.024 23.201 119.005C27.1907 118.986 30.4094 115.736 30.3902 111.746C30.371 107.757 27.1212 104.538 23.1315 104.557C19.1418 104.576 15.9229 107.826 15.9421 111.816Z" fill="url(#paint21_linear_80_109)"/>
<path d="M56.3103 118.846C60.2233 118.827 63.5184 115.5 63.4996 111.587C63.4808 107.674 60.1539 104.379 56.2408 104.398C52.3278 104.417 49.0327 107.744 49.0515 111.657C49.0703 115.57 52.3973 118.865 56.3103 118.846Z" fill="url(#paint22_linear_80_109)"/>
<path d="M82.4665 111.495C82.4857 115.485 85.7356 118.704 89.7253 118.685C93.715 118.666 96.9338 115.416 96.9146 111.426C96.8954 107.436 93.6455 104.218 89.6558 104.237C85.6661 104.256 82.4473 107.506 82.4665 111.495Z" fill="url(#paint23_linear_80_109)"/>
<path d="M115.876 111.335C115.895 115.325 119.145 118.543 123.135 118.524C127.124 118.505 130.343 115.255 130.324 111.265C130.305 107.276 127.055 104.057 123.065 104.076C119.075 104.095 115.857 107.345 115.876 111.335Z" fill="url(#paint24_linear_80_109)"/>
<path d="M156.244 118.364C160.157 118.346 163.452 115.019 163.433 111.106C163.414 107.193 160.087 103.898 156.174 103.916C152.261 103.935 148.966 107.262 148.985 111.175C149.004 115.088 152.331 118.383 156.244 118.364Z" fill="url(#paint25_linear_80_109)"/>
<path d="M182.399 111.015C182.418 115.005 185.668 118.224 189.658 118.205C193.648 118.186 196.866 114.936 196.847 110.946C196.828 106.956 193.578 103.738 189.588 103.757C185.599 103.776 182.38 107.026 182.399 111.015Z" fill="url(#paint26_linear_80_109)"/>
<path d="M23.0379 84.6908C26.9509 84.6719 30.2459 81.345 30.2271 77.432C30.2083 73.519 26.8814 70.2239 22.9684 70.2428C19.0554 70.2616 15.7602 73.5885 15.779 77.5015C15.7979 81.4145 18.8239 84.711 23.0379 84.6908Z" fill="url(#paint27_linear_80_109)"/>
<path d="M56.1463 84.5319C60.0593 84.5131 63.3543 81.1862 63.3355 77.2732C63.3167 73.3602 59.9898 70.0651 56.0768 70.0839C52.1638 70.1028 48.8686 73.4297 48.8874 77.3427C48.9063 81.2557 52.2333 84.5508 56.1463 84.5319Z" fill="url(#paint28_linear_80_109)"/>
<path d="M89.5593 84.3714C93.4723 84.3525 96.7674 81.0256 96.7486 77.1126C96.7298 73.1996 93.4028 69.9045 89.4898 69.9234C85.5768 69.9422 82.2817 73.2691 82.3005 77.1821C82.3193 81.0951 85.6463 84.3902 89.5593 84.3714Z" fill="url(#paint29_linear_80_109)"/>
<path d="M122.97 84.2098C126.883 84.191 130.178 80.8641 130.159 76.9511C130.14 73.038 126.813 69.743 122.9 69.7618C118.987 69.7806 115.692 73.1075 115.711 77.0205C115.429 80.935 118.756 84.2301 122.97 84.2098Z" fill="url(#paint30_linear_80_109)"/>
<path d="M156.079 84.051C159.992 84.0322 163.287 80.7053 163.268 76.7923C163.249 72.8793 159.922 69.5842 156.009 69.603C152.096 69.6219 148.801 72.9488 148.82 76.8618C148.839 80.7748 152.166 84.0699 156.079 84.051Z" fill="url(#paint31_linear_80_109)"/>
<path d="M189.493 83.8895C193.406 83.8707 196.701 80.5437 196.682 76.6307C196.663 72.7177 193.336 69.4227 189.423 69.4415C185.51 69.4603 182.215 72.7872 182.234 76.7002C181.952 80.6147 185.279 83.9098 189.493 83.8895Z" fill="url(#paint32_linear_80_109)"/>
<path d="M22.8709 50.0775C26.7839 50.0587 30.079 46.7317 30.0601 42.8187C30.0413 38.9057 26.7144 35.6107 22.8014 35.6295C18.8884 35.6483 15.5932 38.9752 15.612 42.8882C15.6309 46.8012 18.6569 50.0977 22.8709 50.0775Z" fill="url(#paint33_linear_80_109)"/>
<path d="M55.9803 49.9177C59.8933 49.8989 63.1883 46.572 63.1695 42.659C63.1507 38.746 59.8238 35.4509 55.9108 35.4697C51.9978 35.4886 48.7026 38.8155 48.7214 42.7285C48.7402 46.6415 52.0672 49.9366 55.9803 49.9177Z" fill="url(#paint34_linear_80_109)"/>
<path d="M89.3923 49.7572C93.3053 49.7383 96.6004 46.4114 96.5816 42.4984C96.5628 38.5854 93.2358 35.2903 89.3228 35.3092C85.4098 35.328 82.1147 38.6549 82.1335 42.5679C82.1523 46.4809 85.4793 49.776 89.3923 49.7572Z" fill="url(#paint35_linear_80_109)"/>
<path d="M122.802 49.5965C126.715 49.5777 130.01 46.2508 129.991 42.3378C129.972 38.4248 126.645 35.1297 122.732 35.1485C118.819 35.1673 115.524 38.4943 115.543 42.4073C115.261 46.3217 118.588 49.6168 122.802 49.5965Z" fill="url(#paint36_linear_80_109)"/>
<path d="M155.913 49.4378C159.826 49.4189 163.121 46.092 163.102 42.179C163.083 38.266 159.756 34.9709 155.843 34.9898C151.93 35.0086 148.635 38.3355 148.654 42.2485C148.673 46.1615 152 49.4566 155.913 49.4378Z" fill="url(#paint37_linear_80_109)"/>
<path d="M189.327 49.2762C193.24 49.2574 196.535 45.9305 196.516 42.0175C196.497 38.1044 193.17 34.8094 189.257 34.8282C185.344 34.847 182.049 38.1739 182.068 42.0869C181.786 46.0014 185.113 49.2965 189.327 49.2762Z" fill="url(#paint38_linear_80_109)"/>
<path d="M22.7049 15.7631C26.6179 15.7443 29.9129 12.4174 29.8941 8.5044C29.8753 4.59139 26.5484 1.29632 22.6354 1.31514C18.7224 1.33396 15.4272 4.66088 15.446 8.57389C15.4648 12.4869 18.4909 15.7834 22.7049 15.7631Z" fill="url(#paint39_linear_80_109)"/>
<path d="M55.8142 15.6035C59.7273 15.5847 63.0223 12.2577 63.0035 8.34473C62.9847 4.43172 59.6578 1.13665 55.7447 1.15547C51.8317 1.17429 48.5366 4.50121 48.5554 8.41422C48.5742 12.3272 51.9012 15.6223 55.8142 15.6035Z" fill="url(#paint40_linear_80_109)"/>
<path d="M89.2282 15.4428C93.1412 15.424 96.4364 12.0971 96.4176 8.18408C96.3987 4.27107 93.0717 0.976009 89.1587 0.994829C85.2457 1.01365 81.9506 4.34057 81.9695 8.25358C81.9883 12.1666 85.3152 15.4617 89.2282 15.4428Z" fill="url(#paint41_linear_80_109)"/>
<path d="M122.637 15.2822C126.55 15.2634 129.846 11.9365 129.827 8.0235C129.808 4.11049 126.481 0.815425 122.568 0.834245C118.655 0.853066 115.36 4.17998 115.379 8.09299C115.398 12.006 118.423 15.3025 122.637 15.2822Z" fill="url(#paint42_linear_80_109)"/>
<path d="M155.748 15.1234C159.661 15.1046 162.956 11.7777 162.937 7.86469C162.918 3.95168 159.591 0.656611 155.678 0.675432C151.765 0.694252 148.47 4.02117 148.489 7.93418C148.508 11.8472 151.835 15.1423 155.748 15.1234Z" fill="url(#paint43_linear_80_109)"/>
<path d="M189.161 14.9629C193.074 14.944 196.369 11.6171 196.35 7.7041C196.331 3.79109 193.004 0.496028 189.091 0.514848C185.178 0.533669 181.883 3.86058 181.902 7.77359C181.921 11.6866 184.947 14.9831 189.161 14.9629Z" fill="url(#paint44_linear_80_109)"/>
<defs>
<linearGradient id="paint0_linear_80_109" x1="217.589" y1="138.237" x2="218.579" y2="152.691" gradientUnits="userSpaceOnUse">
<stop stop-color="#129106"/>
<stop offset="1" stop-color="#5EBF4E"/>
</linearGradient>
<linearGradient id="paint1_linear_80_109" x1="250.999" y1="138.077" x2="251.99" y2="152.53" gradientUnits="userSpaceOnUse">
<stop stop-color="#129106"/>
<stop offset="1" stop-color="#5EBF4E"/>
</linearGradient>
<linearGradient id="paint2_linear_80_109" x1="284.111" y1="137.917" x2="285.101" y2="152.37" gradientUnits="userSpaceOnUse">
<stop stop-color="#129106"/>
<stop offset="1" stop-color="#5EBF4E"/>
</linearGradient>
<linearGradient id="paint3_linear_80_109" x1="217.423" y1="103.622" x2="218.413" y2="118.076" gradientUnits="userSpaceOnUse">
<stop stop-color="#129106"/>
<stop offset="1" stop-color="#5EBF4E"/>
</linearGradient>
<linearGradient id="paint4_linear_80_109" x1="250.833" y1="103.462" x2="251.823" y2="117.915" gradientUnits="userSpaceOnUse">
<stop stop-color="#129106"/>
<stop offset="1" stop-color="#5EBF4E"/>
</linearGradient>
<linearGradient id="paint5_linear_80_109" x1="283.944" y1="103.302" x2="284.934" y2="117.755" gradientUnits="userSpaceOnUse">
<stop stop-color="#129106"/>
<stop offset="1" stop-color="#5EBF4E"/>
</linearGradient>
<linearGradient id="paint6_linear_80_109" x1="217.258" y1="69.3081" x2="218.248" y2="83.7613" gradientUnits="userSpaceOnUse">
<stop stop-color="#129106"/>
<stop offset="1" stop-color="#5EBF4E"/>
</linearGradient>
<linearGradient id="paint7_linear_80_109" x1="250.668" y1="69.1475" x2="251.658" y2="83.6006" gradientUnits="userSpaceOnUse">
<stop stop-color="#129106"/>
<stop offset="1" stop-color="#5EBF4E"/>
</linearGradient>
<linearGradient id="paint8_linear_80_109" x1="283.78" y1="68.9887" x2="284.77" y2="83.4419" gradientUnits="userSpaceOnUse">
<stop stop-color="#129106"/>
<stop offset="1" stop-color="#5EBF4E"/>
</linearGradient>
<linearGradient id="paint9_linear_80_109" x1="217.091" y1="34.6948" x2="218.081" y2="49.148" gradientUnits="userSpaceOnUse">
<stop stop-color="#129106"/>
<stop offset="1" stop-color="#5EBF4E"/>
</linearGradient>
<linearGradient id="paint10_linear_80_109" x1="250.501" y1="34.5333" x2="251.491" y2="48.9864" gradientUnits="userSpaceOnUse">
<stop stop-color="#129106"/>
<stop offset="1" stop-color="#5EBF4E"/>
</linearGradient>
<linearGradient id="paint11_linear_80_109" x1="283.613" y1="34.3745" x2="284.603" y2="48.8277" gradientUnits="userSpaceOnUse">
<stop stop-color="#129106"/>
<stop offset="1" stop-color="#5EBF4E"/>
</linearGradient>
<linearGradient id="paint12_linear_80_109" x1="216.927" y1="0.380485" x2="217.917" y2="14.8336" gradientUnits="userSpaceOnUse">
<stop stop-color="#129106"/>
<stop offset="1" stop-color="#5EBF4E"/>
</linearGradient>
<linearGradient id="paint13_linear_80_109" x1="250.336" y1="0.219901" x2="251.326" y2="14.6731" gradientUnits="userSpaceOnUse">
<stop stop-color="#129106"/>
<stop offset="1" stop-color="#5EBF4E"/>
</linearGradient>
<linearGradient id="paint14_linear_80_109" x1="283.448" y1="0.0601114" x2="284.438" y2="14.5133" gradientUnits="userSpaceOnUse">
<stop stop-color="#129106"/>
<stop offset="1" stop-color="#5EBF4E"/>
</linearGradient>
<linearGradient id="paint15_linear_80_109" x1="18.0246" y1="139.198" x2="19.0148" y2="153.651" gradientUnits="userSpaceOnUse">
<stop stop-color="#129106"/>
<stop offset="1" stop-color="#5EBF4E"/>
</linearGradient>
<linearGradient id="paint16_linear_80_109" x1="51.134" y1="139.039" x2="52.1242" y2="153.492" gradientUnits="userSpaceOnUse">
<stop stop-color="#129106"/>
<stop offset="1" stop-color="#5EBF4E"/>
</linearGradient>
<linearGradient id="paint17_linear_80_109" x1="84.548" y1="138.877" x2="85.5383" y2="153.33" gradientUnits="userSpaceOnUse">
<stop stop-color="#129106"/>
<stop offset="1" stop-color="#5EBF4E"/>
</linearGradient>
<linearGradient id="paint18_linear_80_109" x1="117.957" y1="138.717" x2="118.948" y2="153.171" gradientUnits="userSpaceOnUse">
<stop stop-color="#129106"/>
<stop offset="1" stop-color="#5EBF4E"/>
</linearGradient>
<linearGradient id="paint19_linear_80_109" x1="151.068" y1="138.558" x2="152.058" y2="153.011" gradientUnits="userSpaceOnUse">
<stop stop-color="#129106"/>
<stop offset="1" stop-color="#5EBF4E"/>
</linearGradient>
<linearGradient id="paint20_linear_80_109" x1="184.481" y1="138.397" x2="185.471" y2="152.85" gradientUnits="userSpaceOnUse">
<stop stop-color="#129106"/>
<stop offset="1" stop-color="#5EBF4E"/>
</linearGradient>
<linearGradient id="paint21_linear_80_109" x1="17.8576" y1="104.582" x2="18.8478" y2="119.036" gradientUnits="userSpaceOnUse">
<stop stop-color="#129106"/>
<stop offset="1" stop-color="#5EBF4E"/>
</linearGradient>
<linearGradient id="paint22_linear_80_109" x1="50.967" y1="104.424" x2="51.9572" y2="118.877" gradientUnits="userSpaceOnUse">
<stop stop-color="#129106"/>
<stop offset="1" stop-color="#5EBF4E"/>
</linearGradient>
<linearGradient id="paint23_linear_80_109" x1="84.382" y1="104.262" x2="85.3722" y2="118.715" gradientUnits="userSpaceOnUse">
<stop stop-color="#129106"/>
<stop offset="1" stop-color="#5EBF4E"/>
</linearGradient>
<linearGradient id="paint24_linear_80_109" x1="117.791" y1="104.101" x2="118.782" y2="118.555" gradientUnits="userSpaceOnUse">
<stop stop-color="#129106"/>
<stop offset="1" stop-color="#5EBF4E"/>
</linearGradient>
<linearGradient id="paint25_linear_80_109" x1="150.901" y1="103.942" x2="151.891" y2="118.395" gradientUnits="userSpaceOnUse">
<stop stop-color="#129106"/>
<stop offset="1" stop-color="#5EBF4E"/>
</linearGradient>
<linearGradient id="paint26_linear_80_109" x1="184.315" y1="103.782" x2="185.305" y2="118.235" gradientUnits="userSpaceOnUse">
<stop stop-color="#129106"/>
<stop offset="1" stop-color="#5EBF4E"/>
</linearGradient>
<linearGradient id="paint27_linear_80_109" x1="17.6945" y1="70.2681" x2="18.6847" y2="84.7213" gradientUnits="userSpaceOnUse">
<stop stop-color="#129106"/>
<stop offset="1" stop-color="#5EBF4E"/>
</linearGradient>
<linearGradient id="paint28_linear_80_109" x1="50.8029" y1="70.1093" x2="51.7931" y2="84.5625" gradientUnits="userSpaceOnUse">
<stop stop-color="#129106"/>
<stop offset="1" stop-color="#5EBF4E"/>
</linearGradient>
<linearGradient id="paint29_linear_80_109" x1="84.216" y1="69.9487" x2="85.2062" y2="84.4019" gradientUnits="userSpaceOnUse">
<stop stop-color="#129106"/>
<stop offset="1" stop-color="#5EBF4E"/>
</linearGradient>
<linearGradient id="paint30_linear_80_109" x1="117.61" y1="69.7872" x2="118.599" y2="84.2406" gradientUnits="userSpaceOnUse">
<stop stop-color="#129106"/>
<stop offset="1" stop-color="#5EBF4E"/>
</linearGradient>
<linearGradient id="paint31_linear_80_109" x1="150.736" y1="69.6284" x2="151.726" y2="84.0816" gradientUnits="userSpaceOnUse">
<stop stop-color="#129106"/>
<stop offset="1" stop-color="#5EBF4E"/>
</linearGradient>
<linearGradient id="paint32_linear_80_109" x1="184.133" y1="69.4669" x2="185.122" y2="83.9202" gradientUnits="userSpaceOnUse">
<stop stop-color="#129106"/>
<stop offset="1" stop-color="#5EBF4E"/>
</linearGradient>
<linearGradient id="paint33_linear_80_109" x1="17.5275" y1="35.6548" x2="18.5177" y2="50.108" gradientUnits="userSpaceOnUse">
<stop stop-color="#129106"/>
<stop offset="1" stop-color="#5EBF4E"/>
</linearGradient>
<linearGradient id="paint34_linear_80_109" x1="50.6369" y1="35.4951" x2="51.6271" y2="49.9483" gradientUnits="userSpaceOnUse">
<stop stop-color="#129106"/>
<stop offset="1" stop-color="#5EBF4E"/>
</linearGradient>
<linearGradient id="paint35_linear_80_109" x1="84.049" y1="35.3345" x2="85.0392" y2="49.7877" gradientUnits="userSpaceOnUse">
<stop stop-color="#129106"/>
<stop offset="1" stop-color="#5EBF4E"/>
</linearGradient>
<linearGradient id="paint36_linear_80_109" x1="117.442" y1="35.174" x2="118.431" y2="49.6273" gradientUnits="userSpaceOnUse">
<stop stop-color="#129106"/>
<stop offset="1" stop-color="#5EBF4E"/>
</linearGradient>
<linearGradient id="paint37_linear_80_109" x1="150.57" y1="35.0151" x2="151.56" y2="49.4683" gradientUnits="userSpaceOnUse">
<stop stop-color="#129106"/>
<stop offset="1" stop-color="#5EBF4E"/>
</linearGradient>
<linearGradient id="paint38_linear_80_109" x1="183.967" y1="34.8536" x2="184.956" y2="49.307" gradientUnits="userSpaceOnUse">
<stop stop-color="#129106"/>
<stop offset="1" stop-color="#5EBF4E"/>
</linearGradient>
<linearGradient id="paint39_linear_80_109" x1="17.3615" y1="1.34051" x2="18.3517" y2="15.7937" gradientUnits="userSpaceOnUse">
<stop stop-color="#129106"/>
<stop offset="1" stop-color="#5EBF4E"/>
</linearGradient>
<linearGradient id="paint40_linear_80_109" x1="50.4709" y1="1.18084" x2="51.4611" y2="15.634" gradientUnits="userSpaceOnUse">
<stop stop-color="#129106"/>
<stop offset="1" stop-color="#5EBF4E"/>
</linearGradient>
<linearGradient id="paint41_linear_80_109" x1="83.8849" y1="1.02019" x2="84.8752" y2="15.4734" gradientUnits="userSpaceOnUse">
<stop stop-color="#129106"/>
<stop offset="1" stop-color="#5EBF4E"/>
</linearGradient>
<linearGradient id="paint42_linear_80_109" x1="117.294" y1="0.859611" x2="118.284" y2="15.3128" gradientUnits="userSpaceOnUse">
<stop stop-color="#129106"/>
<stop offset="1" stop-color="#5EBF4E"/>
</linearGradient>
<linearGradient id="paint43_linear_80_109" x1="150.405" y1="0.700797" x2="151.395" y2="15.154" gradientUnits="userSpaceOnUse">
<stop stop-color="#129106"/>
<stop offset="1" stop-color="#5EBF4E"/>
</linearGradient>
<linearGradient id="paint44_linear_80_109" x1="183.818" y1="0.540214" x2="184.808" y2="14.9934" gradientUnits="userSpaceOnUse">
<stop stop-color="#129106"/>
<stop offset="1" stop-color="#5EBF4E"/>
</linearGradient>
</defs>
</svg>
