<svg width="46" height="48" viewBox="0 0 46 48" fill="none" xmlns="http://www.w3.org/2000/svg">
<g clip-path="url(#clip0_107_17)">
<path d="M45.746 24C45.746 10.7452 35.5054 0 22.873 0C10.2406 0 0 10.7452 0 24C0 35.9789 8.36429 45.908 19.2991 47.7084V30.9375H13.4915V24H19.2991V18.7125C19.2991 12.6975 22.714 9.375 27.9386 9.375C30.4403 9.375 33.0587 9.84375 33.0587 9.84375V15.75H30.1745C27.3333 15.75 26.4469 17.6002 26.4469 19.5V24H32.7906L31.7765 30.9375H26.4469V47.7084C37.3817 45.908 45.746 35.9789 45.746 24Z" fill="white"/>
</g>
<defs>
<clipPath id="clip0_107_17">
<rect width="45.746" height="48" fill="white"/>
</clipPath>
</defs>
</svg>
