<svg width="47" height="48" viewBox="0 0 47 48" fill="none" xmlns="http://www.w3.org/2000/svg">
<g clip-path="url(#clip0_107_21)">
<path d="M23.4541 4.32187C29.5655 4.32187 30.2892 4.35 32.6926 4.4625C34.9263 4.56562 36.1325 4.95938 36.9366 5.2875C37.9999 5.71875 38.7683 6.24375 39.5635 7.07812C40.3676 7.92188 40.859 8.71875 41.27 9.83438C41.5827 10.6781 41.958 11.9531 42.0563 14.2875C42.1635 16.8187 42.1903 17.5781 42.1903 23.9813C42.1903 30.3938 42.1635 31.1531 42.0563 33.675C41.958 36.0188 41.5827 37.2844 41.27 38.1281C40.859 39.2438 40.3587 40.05 39.5635 40.8844C38.7593 41.7281 37.9999 42.2438 36.9366 42.675C36.1325 43.0031 34.9174 43.3969 32.6926 43.5C30.2802 43.6125 29.5565 43.6406 23.4541 43.6406C17.3427 43.6406 16.619 43.6125 14.2155 43.5C11.9818 43.3969 10.7756 43.0031 9.9715 42.675C8.90826 42.2438 8.13987 41.7188 7.34468 40.8844C6.54055 40.0406 6.04914 39.2438 5.63814 38.1281C5.32542 37.2844 4.95016 36.0094 4.85188 33.675C4.74466 31.1438 4.71785 30.3844 4.71785 23.9813C4.71785 17.5688 4.74466 16.8094 4.85188 14.2875C4.95016 11.9437 5.32542 10.6781 5.63814 9.83438C6.04914 8.71875 6.54948 7.9125 7.34468 7.07812C8.14881 6.23438 8.90826 5.71875 9.9715 5.2875C10.7756 4.95938 11.9908 4.56562 14.2155 4.4625C16.619 4.35 17.3427 4.32187 23.4541 4.32187ZM23.4541 0C17.2444 0 16.4671 0.028125 14.0279 0.140625C11.5976 0.253125 9.92683 0.665625 8.47939 1.25625C6.96942 1.875 5.69174 2.69062 4.42301 4.03125C3.14533 5.3625 2.36801 6.70313 1.77831 8.27813C1.21542 9.80625 0.822294 11.55 0.715076 14.1C0.607859 16.6687 0.581055 17.4844 0.581055 24C0.581055 30.5156 0.607859 31.3313 0.715076 33.8906C0.822294 36.4406 1.21542 38.1938 1.77831 39.7125C2.36801 41.2969 3.14533 42.6375 4.42301 43.9688C5.69174 45.3 6.96942 46.125 8.47046 46.7344C9.92683 47.325 11.5887 47.7375 14.019 47.85C16.4581 47.9625 17.2355 47.9906 23.4451 47.9906C29.6548 47.9906 30.4321 47.9625 32.8713 47.85C35.3016 47.7375 36.9724 47.325 38.4198 46.7344C39.9209 46.125 41.1985 45.3 42.4673 43.9688C43.736 42.6375 44.5223 41.2969 45.103 39.7219C45.6659 38.1938 46.059 36.45 46.1663 33.9C46.2735 31.3406 46.3003 30.525 46.3003 24.0094C46.3003 17.4938 46.2735 16.6781 46.1663 14.1188C46.059 11.5688 45.6659 9.81563 45.103 8.29688C44.5401 6.70312 43.7628 5.3625 42.4851 4.03125C41.2164 2.7 39.9387 1.875 38.4377 1.26562C36.9813 0.675 35.3194 0.2625 32.8892 0.15C30.4411 0.028125 29.6637 0 23.4541 0Z" fill="white"/>
<path d="M23.4543 11.6719C16.9677 11.6719 11.7051 17.1938 11.7051 24C11.7051 30.8062 16.9677 36.3281 23.4543 36.3281C29.9409 36.3281 35.2035 30.8062 35.2035 24C35.2035 17.1938 29.9409 11.6719 23.4543 11.6719ZM23.4543 31.9969C19.246 31.9969 15.8329 28.4156 15.8329 24C15.8329 19.5844 19.246 16.0031 23.4543 16.0031C27.6626 16.0031 31.0757 19.5844 31.0757 24C31.0757 28.4156 27.6626 31.9969 23.4543 31.9969Z" fill="white"/>
<path d="M38.4108 11.1843C38.4108 12.778 37.1778 14.0624 35.6678 14.0624C34.1489 14.0624 32.9248 12.7687 32.9248 11.1843C32.9248 9.59053 34.1578 8.30615 35.6678 8.30615C37.1778 8.30615 38.4108 9.5999 38.4108 11.1843Z" fill="white"/>
</g>
<defs>
<clipPath id="clip0_107_21">
<rect width="45.746" height="48" fill="white" transform="translate(0.581055)"/>
</clipPath>
</defs>
</svg>
