<svg width="47" height="48" viewBox="0 0 47 48" fill="none" xmlns="http://www.w3.org/2000/svg">
<g clip-path="url(#clip0_107_19)">
<path d="M14.6813 43.5001C31.9397 43.5001 41.3819 28.4935 41.3819 15.4838C41.3819 15.0619 41.373 14.6307 41.3551 14.2088C43.192 12.815 44.7771 11.0886 46.0361 9.11069C44.3254 9.90929 42.5091 10.4309 40.6493 10.6576C42.6076 9.42591 44.0738 7.49104 44.7763 5.21163C42.934 6.35721 40.9193 7.16532 38.8186 7.60131C37.4031 6.02321 35.5316 4.97832 33.4934 4.62819C31.4553 4.27806 29.3639 4.64219 27.5427 5.66428C25.7216 6.68638 24.272 8.3095 23.4182 10.2827C22.5643 12.2559 22.3538 14.4693 22.8191 16.5807C19.0888 16.3843 15.4395 15.3675 12.1077 13.5963C8.77598 11.8251 5.83616 9.33897 3.47886 6.29913C2.28075 8.46658 1.91413 11.0314 2.4535 13.4723C2.99288 15.9132 4.39777 18.047 6.38266 19.4401C4.89252 19.3904 3.43503 18.9695 2.1306 18.2119V18.3338C2.12927 20.6084 2.87869 22.8133 4.25147 24.5736C5.62426 26.334 7.53568 27.5412 9.66083 27.9901C8.28045 28.3863 6.83169 28.4441 5.42664 28.1588C6.02631 30.115 7.19306 31.8259 8.76405 33.0528C10.335 34.2796 12.2319 34.9613 14.1899 35.0026C10.8658 37.7423 6.75962 39.2283 2.53267 39.2213C1.78305 39.2201 1.03417 39.1719 0.290039 39.0769C4.58417 41.9676 9.5794 43.5029 14.6813 43.5001Z" fill="white"/>
</g>
<defs>
<clipPath id="clip0_107_19">
<rect width="45.746" height="48" fill="white" transform="translate(0.290039)"/>
</clipPath>
</defs>
</svg>
